<svg width="800" height="800" viewBox="0 0 800 800" xmlns="http://www.w3.org/2000/svg">

  <!-- Fundo preto -->
  <rect width="800" height="800" fill="#000"/>

  <!-- Controle -->
  <path d="M170 430
           C130 300 230 220 330 250
           L470 250
           C570 220 670 300 630 430
           C610 500 560 540 510 490
           L470 440
           H330
           L290 490
           C240 540 190 500 170 430Z"
        fill="#222"
        stroke="#00eaff"
        stroke-width="12"/>

  <!-- D-Pad -->
  <rect x="260" y="330" width="35" height="110" rx="8" fill="#00eaff"/>
  <rect x="222" y="368" width="110" height="35" rx="8" fill="#00eaff"/>

  <!-- Botões -->
  <circle cx="520" cy="350" r="25" fill="#ff0055"/>
  <circle cx="580" cy="400" r="25" fill="#00ff88"/>
  <circle cx="520" cy="450" r="25" fill="#ffaa00"/>
  <circle cx="460" cy="400" r="25" fill="#8a2be2"/>

  <!-- Analógicos -->
  <circle cx="350" cy="400" r="35" fill="#111" stroke="#00eaff" stroke-width="8"/>
  <circle cx="450" cy="400" r="35" fill="#111" stroke="#00eaff" stroke-width="8"/>

  <!-- Texto -->
  <text x="400" y="650"
        text-anchor="middle"
        font-family="Arial Black, sans-serif"
        font-size="90"
        fill="#ffffff"
        letter-spacing="5">
        STUPIDDOG
  </text>

  <!-- Detalhe -->
  <text x="400" y="720"
        text-anchor="middle"
        font-family="Arial"
        font-size="25"
        fill="#00eaff"
        letter-spacing="8">
        CONTROLLER
  </text>

</svg>
